<?xml version="1.0" standalone="no"?>
<!DOCTYPE svg PUBLIC "-//W3C//DTD SVG 20010904//EN"
 "http://www.w3.org/TR/2001/REC-SVG-20010904/DTD/svg10.dtd">
<svg version="1.0" xmlns="http://www.w3.org/2000/svg"
 width="32.000000pt" height="32.000000pt" viewBox="0 0 32.000000 32.000000"
 preserveAspectRatio="xMidYMid meet">

<g transform="translate(0.000000,32.000000) scale(0.100000,-0.100000)"
fill="#000000" stroke="none">
<path d="M139 302 c-13 -11 -30 -17 -36 -15 -7 3 -13 -1 -13 -7 0 -7 -9 -24
-20 -40 -17 -24 -18 -29 -5 -40 22 -18 18 -32 -7 -24 -21 6 -22 6 -6 -17 8
-13 25 -25 37 -27 28 -4 51 -50 32 -61 -10 -7 -9 -14 5 -37 l19 -28 3 42 c2
29 -4 58 -17 86 -30 60 -27 92 8 110 62 32 94 -39 50 -111 -16 -26 -20 -42
-14 -71 l7 -37 15 30 c11 20 12 30 4 33 -19 6 7 42 31 42 11 0 27 8 34 17 19
25 17 32 -6 26 -24 -6 -26 9 -5 27 11 9 13 16 5 24 -5 5 -10 21 -10 34 0 13
-4 20 -10 17 -5 -3 -25 5 -43 20 -34 25 -34 25 -58 7z"/>
<path d="M147 222 c-13 -14 -13 -20 -3 -34 17 -23 23 -22 35 0 6 12 5 23 -3
35 -12 16 -14 16 -29 -1z"/>
</g>
</svg>
